# xmcd CD database file
# Copyright (C) 1993-1998 Ti Kan
#
# Track frame offsets:
#	150
#	3165
#	18840
#	33422
#	62307
#	75877
#	91647
#	105267
#	122742
#	136072
#
# Disc length: 2148 seconds
#
# Revision: 1
# Processed by: cddbd v1.4b41PL1 Copyright (c) Steve Scherf et al.
# Submitted via: CDValet v3.01 - Copyright (c) 1997 Greg Leichner
#
DISCID=5708620a
DTITLE=Ronnie Milsap - Christmas With Ronnie Milsap
DYEAR=1900
DGENRE=
TTITLE0=Noel Prelude
TTITLE1=Only One Night Of The Year
TTITLE2=I'll Be Home For Christmas
TTITLE3=Christmas Medley
TTITLE4=It's Christmas
TTITLE5=It's Just Not Christmas
TTITLE6=Silver Bells
TTITLE7=O Holy Night
TTITLE8=Christmas Thoughts
TTITLE9=We're Here To Love
EXTD=
EXTT0=
EXTT1=
EXTT2=
EXTT3=
EXTT4=
EXTT5=
EXTT6=
EXTT7=
EXTT8=
EXTT9=
PLAYORDER=
